<svg xmlns="http://www.w3.org/2000/svg" width="1280" height="640" viewBox="0 0 1280 640" role="img" aria-label="11+ Trainer social preview">
  <defs>
    <linearGradient id="bg" x1="0" y1="0" x2="1" y2="1"><stop stop-color="#252052"/><stop offset="0.55" stop-color="#5b4fc4"/><stop offset="1" stop-color="#0ea5a4"/></linearGradient>
    <pattern id="grid" width="48" height="48" patternUnits="userSpaceOnUse"><path d="M48 0H0V48" fill="none" stroke="#fff" stroke-opacity=".12"/></pattern>
  </defs>
  <rect width="1280" height="640" fill="url(#bg)"/>
  <rect width="1280" height="640" fill="url(#grid)"/>
  <rect x="74" y="80" width="118" height="118" rx="28" fill="#fff" fill-opacity=".16" stroke="#fff" stroke-opacity=".35"/>
  <path d="M102 111h22v57h-14v-39h-8zm34 16h17v12h-17zm27-16h12v57h-12z" fill="#fff"/>
  <text x="74" y="292" fill="#fff" font-family="Arial, Helvetica, sans-serif" font-size="75" font-weight="700">Free 11+ Trainer</text>
  <text x="78" y="350" fill="#e7e4ff" font-family="Arial, Helvetica, sans-serif" font-size="31">Practise smarter for UK grammar school entry</text>
  <g font-family="Arial, Helvetica, sans-serif" font-size="27" fill="#fff">
    <circle cx="89" cy="430" r="7" fill="#9ff5e8"/><text x="110" y="439">Visual non-verbal reasoning</text>
    <circle cx="89" cy="482" r="7" fill="#9ff5e8"/><text x="110" y="491">Vocabulary, maths and verbal reasoning</text>
    <circle cx="89" cy="534" r="7" fill="#9ff5e8"/><text x="110" y="543">Unlimited practice and timed mock exams</text>
  </g>
  <text x="78" y="600" fill="#dedbff" font-family="Arial, Helvetica, sans-serif" font-size="22">sahirvhora.github.io/11plus-trainer</text>
  <rect y="632" width="1280" height="8" fill="#9ff5e8"/>
</svg>
